<?xml version="1.0" standalone="no"?>
<!DOCTYPE svg PUBLIC "-//W3C//DTD SVG 20010904//EN"
 "http://www.w3.org/TR/2001/REC-SVG-20010904/DTD/svg10.dtd">
<svg version="1.0" xmlns="http://www.w3.org/2000/svg"
 width="1466.000000pt" height="1245.000000pt" viewBox="0 0 1466.000000 1245.000000"
 preserveAspectRatio="xMidYMid meet">
<metadata>
Created by potrace 1.16, written by Peter Selinger 2001-2019
</metadata>
<g transform="translate(0.000000,1245.000000) scale(0.100000,-0.100000)"
fill="#000000" stroke="none">
<path d="M7130 12443 c-1358 -59 -2614 -597 -3583 -1533 -1327 -1282 -1915
-3123 -1581 -4948 169 -927 603 -1835 1223 -2557 61 -71 111 -132 111 -135 0
-3 -66 -55 -146 -115 l-147 -109 -86 90 c-413 431 -896 1281 -1320 2324 -94
229 -97 235 -134 254 -52 25 -109 10 -138 -37 -19 -30 -20 -43 -14 -237 20
-678 66 -1156 155 -1600 38 -188 111 -464 145 -544 9 -21 14 -40 12 -42 -6 -6
-237 159 -407 291 -257 201 -674 556 -950 809 -52 48 -110 94 -129 102 -42 19
-82 11 -115 -23 -41 -40 -35 -91 25 -241 308 -761 942 -1719 1796 -2714 307
-357 628 -703 680 -732 63 -34 76 -26 373 235 151 132 280 243 286 245 5 3 89
-45 186 -106 1066 -667 2197 -1036 3408 -1111 238 -15 819 -6 1040 15 996 97
1907 364 2840 831 269 134 592 315 758 423 22 14 23 13 29 -7 3 -12 134 -134
296 -276 315 -276 327 -283 391 -249 37 21 195 185 444 464 965 1080 1697
2154 2031 2982 60 150 66 201 25 241 -34 34 -83 44 -120 23 -16 -8 -72 -54
-124 -102 -288 -264 -697 -612 -950 -808 -176 -136 -401 -298 -407 -292 -2 2
3 21 12 42 34 80 107 356 145 544 89 444 135 922 155 1600 6 194 5 207 -14
237 -29 47 -86 62 -138 37 -37 -19 -40 -25 -134 -254 -142 -350 -247 -581
-416 -920 -324 -650 -617 -1105 -908 -1408 l-100 -104 -135 97 c-74 54 -136
99 -138 100 -2 2 25 35 61 73 273 298 554 696 754 1068 540 1005 752 2140 613
3279 -114 936 -476 1838 -1039 2593 -706 946 -1681 1632 -2811 1976 -561 171
-1223 255 -1810 229z m455 -173 c1080 -51 2084 -408 2941 -1047 390 -291 786
-687 1080 -1080 521 -696 875 -1546 998 -2398 67 -462 73 -984 16 -1435 -201
-1584 -1089 -2981 -2438 -3833 -1330 -841 -2989 -1045 -4489 -551 -1767 581
-3114 2065 -3518 3873 -91 409 -126 734 -126 1172 0 600 82 1110 266 1664 346
1041 984 1927 1859 2582 624 468 1351 795 2101 948 289 59 551 92 830 105 237
10 252 10 480 0z m-5980 -7105 c406 -943 828 -1661 1243 -2114 l73 -79 -441
-332 c-242 -182 -447 -341 -455 -353 -25 -36 -19 -82 17 -122 115 -131 607
-539 923 -764 72 -51 131 -94 133 -96 2 -2 -115 -107 -260 -234 l-263 -230
-33 32 c-19 18 -118 124 -222 237 -1010 1101 -1799 2230 -2148 3075 -76 184
-77 181 28 85 505 -462 1031 -889 1375 -1116 134 -88 315 -192 315 -180 0 3
-14 25 -31 50 -42 64 -102 197 -150 334 -165 479 -262 1168 -285 2027 l-6 230
70 -170 c38 -93 91 -219 117 -280z m11631 213 c-25 -844 -113 -1488 -267
-1963 -54 -166 -119 -318 -167 -389 -18 -26 -32 -49 -32 -52 0 -12 181 92 315
180 344 227 870 654 1375 1116 105 96 104 99 28 -85 -358 -866 -1183 -2038
-2220 -3153 l-180 -192 -38 32 c-114 96 -499 434 -499 438 -1 3 12 14 29 23
56 33 345 255 445 341 55 48 208 174 341 280 133 107 251 206 263 221 25 32
27 81 6 112 -10 15 -825 611 -913 668 -1 1 34 40 79 86 243 253 521 659 783
1144 206 380 440 885 599 1292 29 73 54 132 56 133 2 0 1 -105 -3 -232z
m-9811 -2220 c43 -53 290 -283 420 -391 669 -559 1470 -954 2314 -1142 736
-163 1511 -173 2246 -29 1030 201 1982 696 2737 1423 l137 132 627 -453 c345
-249 629 -458 630 -463 3 -12 -62 -66 -308 -257 -1985 -1545 -4227 -2162
-6348 -1747 -1331 261 -2591 920 -3689 1931 -59 54 -72 71 -63 81 29 28 1248
946 1259 946 6 1 23 -14 38 -31z"/>
<path d="M7108 12063 c-33 -5 -33 7 -13 -238 8 -99 15 -191 15 -204 0 -16 -48
43 -159 195 l-158 219 -64 -3 c-35 -2 -66 -6 -69 -8 -4 -5 37 -603 45 -660 l5
-31 58 5 c31 2 60 7 63 11 5 5 -7 198 -24 393 -2 26 -1 45 3 43 4 -3 74 -97
156 -210 l149 -205 67 0 c37 0 69 4 72 8 3 5 -6 153 -19 328 -14 175 -25 329
-25 342 0 19 -5 22 -37 21 -21 -1 -50 -4 -65 -6z"/>
<path d="M7675 12047 c-67 -22 -126 -69 -166 -130 -48 -74 -63 -140 -57 -254
5 -106 36 -181 95 -234 120 -105 316 -119 484 -34 l46 24 10 138 c6 76 10 139
8 141 -7 7 -275 24 -289 19 -12 -5 -16 -20 -16 -56 0 -57 5 -61 90 -61 32 0
61 -4 64 -8 2 -4 2 -26 -1 -49 -4 -34 -11 -43 -42 -58 -125 -60 -269 -4 -302
117 -16 61 -5 178 21 234 62 127 253 140 319 23 l24 -41 51 6 c28 3 59 6 69 6
14 0 16 5 11 28 -19 79 -70 138 -149 173 -62 27 -209 36 -270 16z"/>
<path d="M6130 11920 c-219 -51 -245 -59 -242 -76 4 -24 141 -624 148 -645 4
-14 38 -8 256 43 138 32 254 60 256 63 10 10 -19 114 -31 110 -33 -12 -362
-84 -365 -80 -5 4 -41 154 -42 170 0 6 37 18 83 29 45 10 121 27 168 38 95 22
89 13 68 99 l-9 36 -166 -39 c-92 -21 -169 -37 -171 -34 -8 8 -35 137 -29 143
3 3 83 23 178 45 95 22 174 41 176 43 5 4 -19 105 -26 108 -4 2 -117 -22 -252
-53z"/>
<path d="M8399 11621 c-123 -160 -223 -294 -222 -298 3 -10 115 -44 129 -39 6
2 31 31 55 65 24 33 49 60 54 60 6 0 66 -16 135 -37 l125 -38 9 -85 8 -86 69
-20 c38 -11 71 -18 72 -14 2 3 -13 171 -32 373 l-35 368 -55 15 c-31 9 -63 18
-72 21 -12 3 -78 -75 -240 -285z m260 -41 c5 -63 8 -116 6 -117 -2 -4 -167 46
-173 52 -2 2 31 52 74 110 53 71 80 100 82 88 1 -10 6 -70 11 -133z"/>
<path d="M5513 11734 c-29 -13 -53 -26 -53 -28 0 -3 41 -96 91 -206 50 -111
89 -204 86 -206 -2 -2 -15 4 -28 14 -13 10 -112 78 -220 151 l-196 132 -59
-28 c-32 -15 -60 -28 -61 -29 -2 0 276 -622 283 -632 4 -6 114 48 114 56 0 5
-40 97 -89 203 -48 107 -87 196 -85 198 1 1 100 -63 220 -144 l217 -146 64 27
c48 21 62 31 58 43 -23 60 -280 621 -284 620 -3 0 -30 -11 -58 -25z"/>
<path d="M9086 11401 l-146 -316 61 -27 c34 -16 64 -26 68 -24 4 3 34 64 66
135 49 109 62 130 77 125 44 -13 228 -104 228 -112 0 -5 -27 -66 -60 -137 -33
-71 -56 -132 -52 -136 4 -3 32 -18 63 -31 l56 -26 146 317 145 316 -60 27
c-33 16 -63 26 -67 24 -4 -3 -31 -57 -60 -120 -30 -64 -57 -116 -62 -116 -12
0 -239 108 -239 114 0 3 22 54 49 113 27 59 51 114 53 121 2 8 -22 25 -59 42
l-61 28 -146 -317z"/>
<path d="M4610 11265 c-113 -74 -204 -140 -204 -147 2 -20 365 -573 375 -571
24 7 429 277 429 287 0 15 -48 86 -59 86 -4 0 -77 -45 -162 -100 -85 -55 -156
-100 -159 -100 -6 0 -100 143 -100 152 0 3 65 47 144 99 l144 93 -30 48 c-16
26 -32 48 -34 48 -3 0 -67 -40 -143 -90 -76 -49 -142 -90 -147 -90 -9 0 -87
120 -82 125 2 2 71 47 153 100 83 54 152 99 153 101 6 4 -58 94 -66 94 -4 -1
-99 -61 -212 -135z"/>
<path d="M7130 11260 c-1355 -68 -2601 -779 -3358 -1917 -110 -164 -171 -271
-267 -463 -325 -651 -473 -1349 -444 -2097 61 -1554 974 -2961 2374 -3660 924
-462 1966 -573 2986 -318 875 219 1692 743 2270 1456 648 800 982 1785 956
2814 -15 576 -131 1101 -358 1621 -345 790 -945 1476 -1696 1940 -160 99 -485
262 -658 329 -448 176 -883 269 -1376 295 -208 11 -210 11 -429 0z m580 -181
c800 -64 1582 -378 2230 -895 154 -123 478 -442 594 -586 463 -570 765 -1226
885 -1918 45 -261 55 -393 55 -710 1 -327 -11 -469 -60 -740 -148 -819 -545
-1579 -1134 -2170 -921 -925 -2206 -1358 -3500 -1179 -1086 151 -2068 731
-2730 1614 -465 620 -739 1336 -810 2120 -15 163 -12 569 5 747 63 662 282
1290 643 1848 780 1204 2132 1919 3557 1883 77 -2 196 -8 265 -14z"/>
<path d="M7342 10410 c-5 -14 -33 -98 -62 -187 l-53 -163 -199 -2 -200 -3 162
-114 c125 -88 160 -117 155 -130 -22 -52 -115 -337 -112 -344 1 -4 69 40 151
98 82 59 155 109 162 112 7 2 82 -45 168 -106 85 -61 157 -111 160 -111 2 0
-23 84 -57 186 -53 157 -60 187 -47 194 8 5 80 55 160 112 l145 103 -199 5
-199 5 -62 185 c-55 162 -64 182 -73 160z"/>
<path d="M8735 10210 c-41 -9 -74 -27 -110 -60 -19 -17 -51 -31 -87 -39 -32
-7 -78 -23 -103 -37 -35 -18 -51 -22 -65 -14 -28 15 -31 13 -18 -15 9 -20 8
-28 -5 -43 -33 -36 -48 -92 -46 -171 1 -43 -4 -94 -11 -115 -7 -21 -10 -63 -8
-92 4 -45 11 -61 37 -88 18 -18 50 -39 72 -45 22 -7 67 -34 100 -60 73 -59
151 -98 240 -119 l68 -17 -1 -46 c0 -73 38 -129 100 -150 20 -7 60 -31 89 -55
59 -48 136 -91 197 -109 l39 -12 1 -64 c1 -77 24 -116 87 -147 22 -11 65 -47
95 -81 30 -33 86 -81 125 -106 l69 -47 -26 -31 c-38 -45 -64 -105 -64 -150 0
-50 33 -112 74 -139 19 -13 52 -53 77 -96 24 -40 67 -102 96 -137 l53 -64 -40
-46 c-96 -111 -106 -201 -32 -286 16 -19 35 -52 41 -74 7 -22 31 -80 54 -129
39 -84 41 -90 23 -100 -76 -45 -110 -74 -131 -110 -30 -52 -33 -117 -6 -166
10 -19 23 -75 30 -125 6 -49 14 -101 17 -115 5 -23 1 -26 -55 -43 -65 -18
-122 -61 -147 -109 -9 -18 -14 -51 -13 -86 1 -31 -5 -82 -14 -112 -8 -30 -18
-71 -21 -91 -6 -31 -11 -37 -46 -48 -53 -16 -93 -51 -115 -103 -11 -24 -36
-63 -56 -88 -54 -67 -126 -181 -148 -236 -11 -28 -25 -48 -33 -47 -7 1 -41 10
-76 20 -61 17 -62 18 -57 48 16 91 285 1994 285 2016 0 24 -20 42 -152 136
-83 59 -156 111 -161 114 -5 4 -5 46 1 105 5 54 8 104 5 111 -6 15 -82 37
-197 58 -222 38 -503 2 -783 -100 -130 -48 -376 -170 -489 -243 l-90 -59 -88
58 c-231 152 -487 247 -759 280 -197 24 -477 2 -661 -52 l-69 -21 7 -61 c3
-34 9 -87 12 -118 l6 -56 -146 -129 c-113 -101 -146 -134 -146 -154 0 -36 390
-1983 400 -1993 4 -5 52 -3 106 3 204 25 520 13 712 -26 210 -43 422 -134 560
-238 40 -31 78 -56 83 -56 5 0 33 19 62 43 207 169 537 298 870 342 119 15
405 19 522 6 l60 -6 -43 -19 c-39 -18 -102 -87 -102 -113 0 -5 -30 -29 -67
-53 -142 -92 -295 -271 -348 -407 -16 -40 -20 -43 -93 -67 -213 -69 -414 -108
-552 -107 -176 2 -556 -17 -584 -30 -20 -9 -56 -7 -173 10 -208 31 -309 56
-378 95 l-60 33 -6 84 c-6 95 -29 160 -83 242 -62 94 -160 156 -243 157 -48 0
-49 -3 -29 -70 7 -25 16 -76 20 -115 l7 -70 -26 54 c-14 29 -46 76 -71 105
-26 28 -62 73 -80 100 l-33 50 -21 -46 c-11 -25 -23 -75 -27 -110 l-7 -63 -8
59 c-15 118 -85 223 -180 272 -26 13 -50 24 -54 24 -4 0 -4 -21 0 -47 3 -26 3
-76 -1 -112 l-7 -66 -8 65 c-9 77 -69 205 -123 263 -19 20 -37 37 -40 37 -2 0
-7 -17 -10 -37 -13 -74 -18 -81 -26 -35 -9 47 -48 134 -74 167 -16 20 -17 19
-46 -15 l-29 -34 0 64 c0 67 -15 136 -43 203 -23 55 -50 47 -59 -16 -5 -40
-50 -137 -63 -137 -2 0 3 19 12 43 23 60 23 198 0 264 -10 29 -23 55 -27 58
-5 3 -21 -18 -36 -47 -14 -29 -45 -78 -69 -108 -23 -30 -54 -77 -68 -105 -26
-49 -26 -50 -27 -18 0 26 11 43 51 85 64 65 98 136 105 220 8 82 -5 132 -34
136 -15 2 -22 -2 -22 -13 0 -26 -27 -71 -53 -88 l-24 -15 21 41 c41 84 28 298
-19 305 -15 2 -26 -8 -43 -40 -13 -24 -20 -34 -17 -23 26 83 28 225 4 225 -4
0 -24 -14 -44 -31 l-35 -31 21 48 c22 49 40 224 24 224 -5 0 -23 -11 -41 -25
l-32 -25 33 56 c40 66 51 120 35 169 -6 19 -13 35 -15 35 -2 0 -16 -5 -31 -10
l-26 -10 32 37 c39 43 59 89 69 154 5 33 4 50 -3 52 -6 2 12 29 41 60 55 61
87 133 81 188 l-3 31 -38 -31 c-42 -33 -134 -71 -170 -71 -12 1 1 9 32 20 101
36 196 127 237 226 18 43 15 48 -21 34 -15 -6 -83 -20 -152 -31 -129 -21 -158
-30 -207 -63 l-28 -19 7 24 c12 40 25 49 69 49 62 0 158 26 231 61 125 61 250
188 217 221 -9 9 -19 8 -46 -4 -19 -9 -51 -19 -72 -23 -37 -5 -37 -5 12 15 70
28 142 93 170 155 34 72 32 85 -13 85 l-38 1 32 14 c67 29 203 140 203 166 0
5 -13 9 -29 9 -17 0 -33 5 -36 10 -3 6 1 10 10 10 41 0 150 71 185 120 l21 30
-23 9 c-21 8 -19 10 22 21 62 17 130 53 160 85 21 22 22 28 10 35 -8 5 -24 10
-35 11 -11 0 7 8 40 18 71 20 111 41 154 77 37 31 39 42 9 53 -17 6 -9 9 35
14 74 7 165 49 213 98 45 46 41 52 -45 70 l-54 11 49 17 c27 10 97 54 155 98
59 45 128 93 154 108 57 34 52 37 -70 60 -162 31 -301 6 -407 -72 -40 -29 -50
-33 -44 -18 18 46 29 135 20 165 l-9 30 -73 -35 c-46 -22 -93 -55 -127 -89
-42 -42 -51 -48 -40 -25 9 16 38 47 66 69 28 22 45 40 37 40 -37 0 -184 -57
-230 -89 -62 -43 -115 -118 -126 -175 l-7 -41 -5 54 -5 55 -55 -45 c-30 -24
-75 -74 -99 -109 l-43 -65 7 43 c4 23 4 42 0 42 -3 0 -31 -11 -60 -26 -67 -31
-132 -103 -148 -161 -6 -24 -17 -43 -23 -43 -7 0 -38 -23 -69 -52 -90 -82
-124 -169 -126 -323 l-1 -90 -25 93 c-14 50 -30 92 -35 92 -17 0 -68 -66 -98
-125 -19 -37 -34 -87 -39 -125 -7 -64 -8 -64 -15 -27 -5 20 -12 37 -16 37 -13
0 -77 -102 -102 -161 -18 -44 -22 -74 -22 -161 l-1 -108 -21 62 -20 62 -21
-35 c-73 -119 -70 -283 8 -443 48 -98 7 -36 -52 79 -30 57 -57 105 -60 105
-11 0 -29 -103 -29 -169 0 -113 38 -213 109 -291 57 -62 89 -110 96 -145 6
-29 6 -28 -19 10 -14 22 -26 43 -26 48 0 4 -8 15 -17 25 -10 10 -53 64 -96
120 -42 56 -81 102 -86 102 -9 0 -16 -30 -26 -115 -9 -67 17 -184 57 -265 22
-43 64 -97 125 -161 51 -53 100 -113 108 -132 26 -63 16 -64 -18 -2 -20 37
-69 97 -127 155 -52 53 -111 117 -130 143 -19 25 -38 47 -41 47 -12 0 -29 -88
-29 -149 0 -68 24 -142 70 -215 l31 -48 -61 47 c-34 26 -63 46 -64 44 -8 -9
15 -149 34 -209 24 -81 84 -175 136 -217 21 -16 82 -51 134 -76 55 -26 110
-61 130 -82 l35 -36 -70 46 c-75 49 -304 169 -311 163 -2 -3 5 -38 17 -79 25
-91 69 -167 131 -225 49 -45 49 -51 2 -34 -15 6 -29 9 -31 6 -12 -12 68 -136
130 -202 50 -54 87 -83 140 -109 65 -33 68 -36 32 -29 -22 4 -68 15 -102 24
-35 10 -63 13 -63 8 0 -5 13 -34 29 -66 58 -114 154 -196 278 -238 l63 -21
-37 -7 c-21 -3 -52 -6 -70 -6 -17 0 -34 -4 -37 -9 -4 -5 20 -36 52 -69 73 -73
177 -128 262 -138 33 -4 60 -11 60 -15 0 -5 -9 -9 -19 -9 -30 0 -151 -40 -151
-50 0 -4 21 -29 46 -54 60 -60 155 -92 250 -83 35 4 64 5 64 3 0 -1 -34 -16
-75 -31 l-75 -29 21 -22 c34 -37 117 -67 198 -72 l75 -5 -48 -24 -48 -24 23
-26 c39 -43 105 -66 186 -67 67 0 71 -2 47 -14 -33 -17 -22 -32 49 -63 45 -21
67 -24 174 -24 66 0 116 -4 110 -8 -7 -4 -30 -17 -52 -29 l-40 -21 50 -22 c98
-43 192 -60 325 -60 113 1 136 4 240 35 109 33 123 35 253 34 76 -1 143 -6
148 -11 5 -5 -77 -20 -208 -38 -120 -15 -226 -31 -235 -34 -14 -5 23 -41 158
-155 l175 -148 122 40 c154 51 237 74 409 112 114 25 172 32 353 40 l217 9
171 -39 c93 -22 178 -40 188 -40 23 0 180 136 186 161 3 11 18 20 41 23 58 8
323 9 482 1 129 -6 155 -5 235 14 101 24 208 74 275 127 25 19 70 50 100 67
31 18 67 51 85 75 27 39 30 52 31 119 l0 76 55 14 c124 31 280 127 355 218 21
27 62 71 89 99 67 68 90 144 65 212 -10 25 -7 30 27 57 107 86 205 221 250
347 14 41 37 88 50 103 51 63 51 164 -2 233 l-24 31 30 29 c37 36 104 169 124
248 15 61 29 185 29 271 1 68 -27 122 -81 154 -29 18 -41 31 -36 41 57 145 79
277 69 425 -4 55 -8 125 -10 155 -1 30 -10 69 -19 87 -22 42 -84 92 -125 99
l-33 6 8 47 c4 25 8 98 8 161 0 108 -12 183 -56 351 -21 84 -90 140 -175 143
l-44 1 0 85 c0 47 -7 112 -15 143 -15 58 -66 169 -90 197 -8 8 -28 43 -46 78
-25 49 -42 69 -77 90 -58 33 -127 35 -194 5 l-47 -21 -6 31 c-19 88 -82 181
-190 278 -22 20 -55 52 -73 72 -62 66 -145 73 -231 20 l-46 -29 -24 60 c-28
73 -100 185 -141 220 -17 14 -30 32 -30 41 0 37 -48 99 -95 122 -31 15 -77 21
-110 13z m99 -106 c35 -36 34 -77 -7 -144 -45 -77 -111 -120 -183 -120 l-54 0
0 -60 c0 -70 -15 -113 -59 -162 -44 -51 -79 -63 -124 -44 -44 18 -56 52 -37
110 6 23 13 84 14 136 1 83 4 99 25 129 28 39 106 78 177 87 27 4 53 13 57 21
5 8 27 27 49 43 54 39 105 40 142 4z m-2928 -448 c-17 -58 -92 -168 -126 -186
-37 -20 -16 -21 34 -3 33 12 53 27 63 47 50 97 170 177 295 197 62 10 214 -2
246 -20 9 -5 -8 -21 -56 -53 -38 -25 -95 -67 -127 -94 -78 -63 -150 -85 -271
-83 -81 1 -96 -1 -150 -27 -33 -17 -60 -37 -62 -46 -5 -25 24 -23 79 4 33 16
68 23 140 26 95 4 209 -11 209 -28 0 -14 -61 -57 -116 -82 -72 -33 -204 -31
-295 4 l-67 25 -58 -27 c-33 -15 -67 -36 -77 -48 -18 -20 -18 -20 25 -10 71
17 216 14 283 -6 l59 -18 -24 -20 c-84 -67 -216 -93 -328 -64 -78 20 -105 20
-141 2 -65 -34 -55 -41 57 -41 108 0 242 -20 242 -36 0 -14 -87 -60 -142 -75
-56 -15 -222 -18 -298 -5 -36 6 -51 3 -75 -13 -45 -29 -85 -68 -85 -83 0 -16
76 -18 85 -3 11 18 84 50 138 61 55 10 181 -4 193 -22 9 -15 -56 -70 -116 -98
-50 -24 -67 -26 -191 -27 -158 -1 -181 -10 -230 -85 -16 -25 -29 -49 -29 -52
0 -17 29 -4 73 33 27 22 65 44 85 50 41 11 203 12 241 1 23 -6 22 -8 -28 -53
-97 -84 -211 -128 -337 -128 -79 0 -92 -8 -119 -73 -24 -57 -19 -60 36 -22 61
42 151 71 248 81 67 6 71 5 71 -14 0 -37 -63 -115 -120 -150 -66 -39 -102 -50
-200 -61 -82 -9 -180 -50 -180 -76 0 -20 5 -19 58 6 32 16 74 24 163 30 82 6
133 14 164 28 42 19 44 19 36 2 -6 -10 -38 -44 -71 -75 -94 -87 -215 -141
-342 -153 -82 -7 -99 -23 -106 -95 l-4 -53 28 27 c44 41 111 66 224 83 57 9
114 18 127 21 30 8 29 -5 -5 -52 -84 -115 -178 -166 -332 -182 -70 -7 -76 -9
-97 -41 -13 -19 -23 -47 -23 -64 0 -29 0 -29 23 -13 46 34 125 65 207 81 47 9
109 30 139 46 l54 28 -6 -34 c-13 -78 -110 -176 -213 -215 -130 -48 -214 -112
-214 -163 0 -19 4 -17 31 16 39 47 77 67 129 67 55 0 100 20 135 61 l28 34 -7
-43 c-16 -105 -81 -184 -182 -222 -33 -12 -68 -29 -78 -38 -29 -26 -56 -92
-55 -137 l0 -40 19 36 c29 55 104 124 180 163 37 20 73 36 79 36 20 0 13 -97
-10 -142 -27 -52 -107 -133 -181 -182 -55 -37 -56 -38 -62 -98 -7 -60 1 -87
23 -74 5 4 24 32 42 64 32 55 179 212 199 212 17 0 11 -74 -10 -141 -24 -77
-73 -146 -139 -196 -75 -57 -103 -144 -62 -194 l18 -23 17 52 c29 86 151 253
209 283 19 11 20 9 15 -68 -6 -103 -37 -169 -118 -251 -59 -61 -99 -127 -100
-165 0 -22 27 -77 39 -77 5 0 11 21 15 46 9 71 41 131 99 188 29 29 70 85 92
126 l39 75 13 -55 c18 -73 10 -176 -17 -232 -30 -58 -56 -86 -111 -113 -60
-31 -78 -69 -57 -123 23 -62 45 -48 63 43 7 31 67 94 133 137 23 15 50 44 60
64 l19 37 6 -44 c13 -95 -19 -183 -97 -268 -50 -55 -56 -65 -56 -105 0 -28 7
-52 18 -67 l19 -22 11 45 c7 25 28 70 49 99 20 30 56 82 79 117 l42 63 12 -36
c17 -52 15 -161 -3 -225 -9 -30 -33 -82 -53 -115 -33 -55 -35 -62 -24 -90 7
-16 15 -48 17 -70 11 -89 43 -65 43 31 0 73 17 124 65 203 19 31 39 77 44 101
l8 45 12 -30 c52 -128 53 -259 3 -349 -36 -62 -42 -124 -18 -179 14 -34 52
-74 62 -65 3 3 -1 35 -7 72 -10 51 -10 81 -1 129 12 65 60 170 77 170 6 0 23
-26 39 -57 41 -80 48 -189 16 -283 -26 -76 -19 -122 24 -162 l25 -24 -1 114
c-1 79 4 133 15 175 9 34 17 74 17 88 0 38 15 32 50 -19 80 -117 105 -225 75
-325 -10 -33 -15 -69 -11 -84 6 -26 112 -110 127 -101 4 3 -6 31 -22 63 -20
38 -30 74 -31 107 -2 75 14 255 23 255 21 0 98 -72 126 -119 44 -73 57 -144
49 -267 -6 -101 -6 -101 20 -112 34 -16 74 -15 74 2 0 7 -7 33 -16 57 -22 58
-24 211 -3 258 l15 34 29 -39 c16 -22 46 -58 68 -82 56 -63 88 -142 96 -237
l6 -80 55 -12 c30 -6 58 -8 63 -4 4 4 -4 20 -19 36 -34 37 -62 119 -74 219 -5
45 -14 97 -20 116 -17 58 -15 63 27 55 147 -27 283 -219 283 -400 0 -64 0 -65
39 -93 59 -43 177 -77 362 -106 91 -14 175 -26 187 -26 18 0 22 -6 22 -29 0
-28 -1 -29 -77 -40 -54 -8 -102 -8 -153 -2 -233 30 -368 24 -499 -21 -131 -44
-325 -42 -473 6 l-73 23 95 46 c103 49 223 84 328 96 66 7 66 8 37 20 -16 7
-57 15 -90 18 -53 4 -68 1 -137 -31 -113 -53 -234 -79 -333 -73 -83 6 -168 32
-162 51 5 14 163 82 236 101 32 8 86 15 120 15 47 0 61 3 61 15 0 47 -100 44
-221 -8 -124 -53 -200 -70 -290 -65 -56 3 -86 10 -113 27 -20 12 -36 26 -36
31 0 4 46 27 103 51 94 40 110 43 207 46 118 4 150 9 150 23 0 12 -36 31 -79
41 -23 5 -48 3 -75 -7 -177 -66 -220 -76 -301 -71 -91 6 -143 19 -176 46 l-24
19 39 16 c134 56 223 80 296 81 41 0 77 5 79 10 3 6 -16 21 -42 33 l-46 24
-91 -31 c-192 -67 -343 -56 -426 30 -34 36 -29 41 60 60 68 16 248 19 314 5
l44 -8 -17 25 c-26 41 -88 67 -133 56 -104 -24 -262 -5 -356 43 -41 21 -136
104 -136 119 0 5 60 9 133 9 137 0 227 -15 271 -44 34 -21 60 -22 48 0 -15 26
-157 84 -207 84 -133 0 -288 58 -373 139 -46 44 -109 137 -100 146 2 2 31 -2
63 -9 33 -8 94 -19 135 -26 91 -15 134 -38 234 -129 43 -39 82 -71 87 -71 15
0 10 33 -10 65 -10 17 -52 66 -94 109 -75 77 -77 79 -115 72 -93 -14 -218 32
-305 112 -55 52 -143 175 -128 180 17 6 222 -67 308 -109 46 -22 99 -53 118
-70 29 -26 36 -28 41 -15 3 9 -1 28 -11 42 -23 35 -129 102 -174 110 -180 30
-303 110 -369 240 -31 61 -55 134 -45 134 4 0 53 -25 110 -55 121 -64 210
-123 271 -179 39 -36 42 -37 33 -13 -36 95 -106 161 -235 222 -111 53 -172
110 -216 200 -28 56 -65 196 -58 217 4 11 100 -61 203 -151 81 -70 173 -176
181 -208 6 -23 30 -38 39 -23 9 15 -6 62 -37 115 -20 34 -50 63 -90 90 -89 60
-199 180 -239 261 -30 61 -34 78 -34 150 0 45 3 85 7 89 4 4 19 -8 34 -26 15
-19 65 -71 110 -115 93 -93 126 -140 164 -237 15 -37 30 -64 33 -60 4 3 7 35
7 70 0 85 -19 119 -122 223 -68 68 -94 103 -129 174 -41 83 -44 94 -47 188 -3
58 0 104 5 109 17 17 178 -198 240 -319 l34 -67 -3 70 c-4 88 -29 141 -107
229 -36 40 -67 88 -80 123 -26 66 -38 182 -24 233 l9 35 44 -85 c25 -46 60
-104 78 -128 41 -54 62 -110 62 -166 0 -22 5 -48 10 -56 19 -28 27 7 22 93 -4
70 -9 88 -34 125 -66 97 -118 242 -118 332 0 46 25 147 40 163 4 5 24 -38 45
-94 21 -57 53 -134 71 -172 18 -39 36 -90 40 -116 6 -41 8 -43 16 -21 5 14 9
52 9 86 0 53 -6 73 -46 150 -80 154 -82 285 -8 426 19 38 39 68 43 68 8 0 53
-179 70 -282 7 -37 10 -90 8 -118 -3 -50 -3 -51 14 -30 46 57 47 155 3 261
-35 82 -43 185 -21 261 16 58 74 152 91 151 26 -2 81 -277 70 -348 -3 -22 -12
-50 -20 -61 -13 -20 -10 -64 4 -64 8 1 57 106 72 158 11 38 10 50 -7 95 -15
41 -19 77 -19 172 1 146 21 208 94 287 l48 52 8 -90 c11 -113 12 -222 3 -299
l-7 -60 30 61 c48 99 56 157 34 248 -28 123 -7 232 59 304 22 25 95 67 102 59
3 -2 0 -46 -6 -98 -6 -51 -8 -111 -5 -133 4 -26 -1 -69 -13 -114 -20 -80 -14
-85 32 -28 28 34 31 44 27 89 -9 112 -5 183 12 226 24 60 71 123 120 162 l40
33 -7 -130 c-6 -120 -12 -162 -31 -239 l-8 -30 38 35 c58 54 67 85 59 200 -5
69 -3 113 6 145 23 80 120 169 219 200 l24 7 -21 -27 c-23 -29 -52 -113 -52
-150 0 -39 -29 -119 -63 -177 -39 -64 -36 -91 6 -58 46 36 79 104 87 179 4 37
16 85 26 107 25 53 89 113 160 151 l59 32 3 -45 c2 -25 -4 -69 -12 -98z m3431
64 c62 -37 53 -114 -22 -198 -53 -58 -116 -88 -170 -79 l-35 6 0 -62 c-1 -126
-89 -234 -174 -213 -55 14 -72 70 -41 142 10 24 12 53 8 98 -7 78 -1 105 33
146 35 41 94 70 157 77 43 4 59 12 92 44 64 61 101 70 152 39z m564 -409 c17
-18 29 -40 29 -56 0 -62 -79 -158 -164 -196 -45 -20 -110 -25 -149 -10 -24 10
-25 9 -29 -54 -3 -52 -10 -73 -38 -115 -39 -56 -110 -110 -147 -110 -32 0 -80
26 -93 49 -16 31 -12 55 19 114 23 43 28 64 24 94 -8 63 14 123 62 169 48 46
101 64 191 64 48 0 63 5 103 34 57 41 65 44 119 45 35 1 49 -5 73 -28z m352
-611 c14 -11 31 -36 37 -55 16 -50 -15 -112 -80 -160 -93 -68 -197 -83 -260
-37 l-27 21 -18 -64 c-21 -79 -73 -142 -147 -179 -69 -34 -93 -33 -134 8 -49
49 -45 84 19 168 23 30 39 66 47 104 16 75 30 104 74 142 59 52 129 63 227 38
54 -14 58 -14 104 10 60 30 122 32 158 4z m-1488 -375 c50 -8 108 -21 130 -28
39 -14 40 -15 37 -58 -7 -121 -183 -2103 -187 -2109 -2 -4 -62 -10 -132 -13
-380 -19 -784 -141 -1056 -319 -43 -28 -79 -49 -81 -47 -2 4 -47 2052 -46
2146 l0 41 98 60 c267 165 577 287 827 326 120 19 299 19 410 1z m-2070 -85
c207 -44 412 -129 596 -248 l89 -57 0 -100 c0 -55 9 -487 20 -960 11 -473 20
-922 20 -997 l0 -138 -49 30 c-80 50 -249 126 -373 168 -246 85 -458 122 -703
122 -85 0 -155 4 -155 8 0 5 -63 478 -140 1052 -77 574 -140 1051 -140 1061 0
20 50 37 185 63 122 23 135 24 350 21 158 -3 221 -8 300 -25z m2404 -295 c128
-91 141 -103 140 -130 0 -16 -64 -475 -142 -1020 -135 -944 -143 -990 -162
-987 -82 11 -436 13 -530 3 -357 -39 -719 -176 -942 -358 l-43 -34 -44 36
c-168 138 -439 241 -734 280 -132 17 -448 20 -571 5 -46 -6 -86 -9 -89 -6 -7
8 -392 1936 -391 1961 1 22 259 258 270 247 3 -4 61 -419 128 -922 67 -503
124 -930 128 -947 l5 -33 135 0 c385 0 787 -106 1099 -289 47 -28 90 -51 95
-51 6 0 33 17 62 38 275 201 692 333 1130 358 65 4 120 11 124 17 5 8 172
1864 173 1920 0 10 4 17 9 15 5 -1 72 -48 150 -103z m1128 50 c37 -15 44 -15
71 -1 72 37 155 29 185 -18 41 -63 23 -127 -51 -181 -98 -71 -204 -83 -280
-33 l-38 26 -18 -52 c-32 -91 -154 -186 -239 -186 -29 0 -87 63 -87 95 0 36
15 62 65 115 28 29 47 62 55 93 14 53 57 118 94 142 53 35 156 35 243 0z m8
-684 c22 -10 55 -31 74 -45 30 -22 45 -26 105 -26 39 0 82 -6 96 -13 34 -17
63 -79 55 -117 -14 -64 -121 -120 -230 -120 -64 0 -132 33 -162 78 -18 28 -22
30 -27 15 -13 -41 -91 -110 -149 -132 -62 -23 -136 -27 -168 -11 -24 14 -49
61 -49 96 0 33 63 97 113 113 22 8 39 22 49 44 23 49 66 95 107 117 47 25 133
26 186 1z m-129 -612 c24 -11 68 -47 98 -80 36 -39 63 -59 78 -59 45 0 102
-22 130 -50 22 -22 28 -38 28 -70 0 -23 -5 -50 -11 -62 -28 -52 -162 -74 -265
-43 -58 17 -123 75 -131 117 l-5 28 -37 -29 c-61 -48 -102 -64 -177 -69 -90
-6 -139 10 -165 52 -28 45 -24 83 10 115 28 26 89 51 126 51 10 0 38 18 62 41
85 78 176 99 259 58z m-247 -534 c62 -32 111 -127 111 -215 0 -32 6 -41 40
-65 23 -16 48 -46 61 -72 19 -40 20 -49 9 -86 -6 -22 -25 -53 -40 -69 -55 -54
-166 -32 -245 49 -42 43 -58 92 -54 160 l4 50 -35 -15 c-93 -40 -227 -7 -276
68 -22 33 -24 42 -15 81 14 62 57 99 116 99 24 0 55 -4 70 -10 20 -8 34 -6 58
7 69 35 149 43 196 18z m-782 -497 c37 -17 49 -18 102 -8 173 31 270 -60 259
-245 -4 -68 -3 -71 29 -110 39 -46 58 -102 49 -141 -4 -15 -24 -45 -45 -66
-34 -33 -45 -38 -85 -38 -27 0 -63 8 -84 19 -44 23 -103 83 -126 128 -20 40
-21 129 -1 167 8 15 15 29 15 30 0 0 -35 0 -79 -2 -68 -3 -85 0 -127 21 -102
52 -145 125 -115 193 37 83 106 100 208 52z m-802 -939 c-33 -33 -72 -69 -87
-80 -28 -21 -14 -23 -356 56 -18 5 -21 9 -12 24 7 15 30 21 107 30 150 19 261
28 338 30 l69 1 -59 -61z"/>
<path d="M6380 6964 c-99 -16 -212 -48 -217 -61 -12 -32 13 -35 108 -15 52 12
114 24 139 29 36 6 45 12 45 28 0 21 -24 27 -75 19z"/>
<path d="M4510 4855 c-7 -8 -8 -20 -3 -28 4 -8 116 -97 248 -197 132 -101 250
-191 263 -201 l24 -18 -271 -136 c-272 -135 -299 -154 -248 -174 18 -8 1062
-152 1090 -151 4 0 7 -37 7 -82 0 -46 4 -89 8 -95 5 -7 65 -22 138 -32 399
-61 1271 -98 2059 -88 672 9 1031 37 1183 93 42 16 42 16 43 67 0 29 3 70 7
91 l7 40 565 77 c311 43 566 78 568 79 1 0 2 11 2 23 0 21 -30 39 -265 153
-146 71 -264 132 -263 136 2 4 120 96 263 206 250 191 291 230 253 244 -25 10
-1541 -170 -1550 -184 -4 -7 -8 -48 -8 -90 l0 -77 -32 -5 c-47 -8 -355 -24
-708 -37 -188 -7 -512 -9 -845 -6 -484 5 -609 10 -902 33 l-83 6 0 89 c0 55
-4 90 -11 95 -7 4 -334 44 -728 90 -394 45 -735 85 -758 88 -29 4 -45 1 -53
-9z"/>
<path d="M10055 10889 c-119 -149 -215 -272 -213 -273 2 -1 26 -21 55 -44 l51
-42 67 84 66 84 75 7 c42 4 78 5 80 2 3 -2 -7 -79 -21 -171 -14 -92 -25 -174
-25 -184 0 -18 133 -129 137 -115 1 4 14 115 27 247 14 131 27 240 29 243 3 2
84 14 181 26 97 12 176 24 176 28 0 4 -30 31 -67 60 l-66 53 -199 -28 c-109
-16 -200 -27 -203 -25 -2 3 37 56 88 118 l91 114 -39 34 c-22 18 -47 38 -57
43 -13 8 -53 -36 -233 -261z"/>
<path d="M4068 10877 l-77 -72 116 -208 c63 -115 114 -210 112 -211 -2 -2 -93
52 -202 121 -109 68 -202 123 -206 121 -5 -2 -41 -33 -81 -71 l-72 -67 138
-147 c77 -81 182 -193 234 -249 52 -56 100 -102 105 -103 6 -1 29 18 52 42
l41 42 -89 95 c-193 205 -273 293 -259 285 8 -5 109 -69 225 -143 115 -74 215
-135 221 -136 6 -1 32 18 57 42 l47 42 -116 208 c-64 114 -125 223 -136 242
-23 40 10 8 224 -219 l126 -135 44 39 c24 21 44 42 46 46 3 6 -466 511 -472
509 0 -1 -36 -33 -78 -73z"/>
<path d="M10665 10389 c-138 -127 -250 -234 -250 -240 0 -5 78 -95 174 -199
l175 -190 40 37 c23 21 42 39 45 40 2 1 -56 66 -129 145 l-132 143 68 64 69
63 120 -126 120 -126 43 38 42 38 -115 124 c-63 69 -115 127 -115 130 0 3 24
29 53 58 l54 53 123 -135 c68 -75 127 -136 131 -136 13 0 79 61 79 72 0 9
-299 338 -332 365 -10 9 -67 -38 -263 -218z"/>
<path d="M3212 9960 c-18 -28 -32 -55 -32 -60 0 -4 49 -39 110 -77 60 -37 109
-71 110 -75 0 -9 -117 -195 -135 -216 -9 -10 -35 3 -124 59 -62 39 -114 69
-117 66 -3 -3 -20 -29 -39 -58 l-33 -53 31 -22 c86 -57 547 -344 554 -344 9 0
73 95 73 108 0 5 -56 44 -125 86 -69 43 -125 80 -125 82 0 9 138 218 146 221
5 2 63 -31 129 -72 65 -41 122 -75 125 -75 8 0 70 97 70 110 0 8 -539 353
-571 365 -11 4 -25 -10 -47 -45z"/>
<path d="M11405 9653 c-217 -142 -254 -163 -290 -163 -29 0 -62 29 -71 64 -7
29 18 81 46 96 l21 11 -21 27 c-11 15 -30 40 -43 55 l-24 29 -38 -33 c-45 -40
-74 -99 -75 -151 0 -48 55 -153 100 -189 52 -41 115 -56 174 -39 40 11 376
219 461 285 l26 20 -38 56 -38 57 -190 -125z"/>
<path d="M11603 9316 c-242 -115 -293 -148 -324 -207 -59 -116 29 -341 156
-400 80 -37 126 -25 415 111 107 50 197 93 199 96 4 4 -37 102 -50 117 -4 5
-98 -34 -210 -86 -232 -107 -270 -121 -301 -112 -49 15 -98 87 -98 145 0 69
20 87 193 170 89 43 192 91 230 108 l67 31 -25 58 c-15 32 -29 61 -33 64 -4 3
-103 -39 -219 -95z"/>
<path d="M2700 9055 c-17 -37 -30 -70 -30 -73 1 -4 117 -126 259 -271 l258
-264 31 68 32 67 -61 57 -61 56 58 129 58 129 86 -5 86 -5 31 67 31 68 -87 6
c-47 3 -185 11 -306 16 -121 6 -250 13 -288 16 l-67 5 -30 -66z m382 -91 l36
-5 -35 -77 c-19 -42 -38 -80 -42 -84 -3 -4 -49 35 -101 88 l-95 96 100 -7 c55
-3 116 -8 137 -11z"/>
<path d="M11830 8551 c-173 -53 -321 -99 -329 -102 -11 -4 -9 -17 7 -69 11
-36 23 -65 26 -64 4 1 66 18 137 39 144 43 143 43 154 -27 9 -51 -9 -84 -115
-210 l-91 -108 22 -75 c12 -41 26 -75 30 -75 18 0 172 189 197 241 l26 56 28
-39 c46 -62 82 -80 159 -76 125 6 199 88 185 204 -6 55 -102 384 -114 395 -4
3 -149 -37 -322 -90z m284 -176 c34 -116 34 -148 0 -174 -33 -26 -84 -27 -113
-3 -14 10 -34 56 -55 122 l-34 105 82 26 c44 15 84 24 88 20 3 -3 18 -46 32
-96z"/>
<path d="M3017 8249 c-26 -89 -49 -164 -51 -166 -2 -2 -121 30 -264 71 -144
42 -267 76 -275 76 -13 0 -53 -117 -43 -127 9 -9 650 -192 656 -187 2 3 35
109 71 235 l67 229 -51 15 c-28 8 -53 15 -57 15 -3 0 -27 -73 -53 -161z"/>
<path d="M12137 7800 c-103 -15 -214 -33 -246 -40 -109 -23 -167 -73 -192
-164 -25 -89 19 -275 78 -328 33 -30 91 -48 155 -48 50 0 496 57 505 64 3 3
-17 130 -21 134 -2 1 -101 -11 -221 -28 -239 -33 -282 -36 -319 -19 -33 16
-57 68 -58 128 0 62 22 96 75 115 33 12 436 76 479 76 8 0 5 58 -8 118 -5 26
9 27 -227 -8z"/>
<path d="M2478 7794 c-63 -19 -148 -98 -179 -166 -21 -46 -24 -69 -24 -163 0
-102 2 -114 27 -156 54 -92 146 -149 273 -169 201 -32 354 57 400 235 52 203
-42 368 -240 421 -65 18 -197 17 -257 -2z m278 -159 c91 -44 130 -127 104
-219 -26 -96 -112 -143 -240 -134 -142 11 -230 85 -230 194 0 54 26 119 58
147 61 55 209 60 308 12z"/>
<path d="M11748 6996 l-3 -75 79 -35 78 -35 -6 -58 c-3 -32 -8 -95 -12 -140
l-6 -81 -78 -23 c-72 -20 -79 -25 -84 -52 -10 -50 -7 -117 5 -117 12 0 691
220 697 225 2 2 6 36 9 77 l5 73 -333 155 c-183 85 -336 156 -340 158 -4 2 -9
-31 -11 -72z m395 -251 c59 -26 107 -51 107 -54 0 -6 -242 -81 -248 -76 -1 1
1 43 5 94 4 60 10 90 17 88 6 -3 59 -26 119 -52z"/>
<path d="M2809 6913 c-63 -47 -151 -115 -196 -149 l-81 -64 -143 119 c-79 66
-145 119 -146 117 -1 -1 0 -42 4 -90 l6 -89 165 -131 165 -131 -99 -8 c-54 -4
-123 -10 -153 -13 l-53 -6 4 -63 c2 -36 6 -67 9 -69 3 -3 149 6 325 19 175 14
329 25 342 25 19 0 22 5 22 39 0 21 -3 53 -6 71 l-7 32 -103 -7 -104 -7 -59
49 c-33 26 -60 50 -60 53 -1 3 65 50 145 105 80 55 149 105 154 110 10 12 0
175 -10 175 -5 0 -59 -39 -121 -87z"/>
<path d="M11671 6204 c-6 -31 -9 -59 -6 -63 2 -4 99 -27 214 -52 116 -24 211
-46 211 -49 0 -3 -107 -43 -238 -89 -130 -46 -242 -89 -248 -95 -10 -10 -38
-126 -31 -132 7 -8 669 -145 674 -140 3 3 11 30 18 61 10 43 11 57 2 60 -7 3
-106 25 -220 49 -115 24 -210 46 -212 48 -2 2 110 44 249 93 l254 90 14 67 c8
38 13 68 12 68 -2 0 -151 31 -331 70 -180 38 -333 70 -339 70 -6 0 -16 -25
-23 -56z"/>
<path d="M2947 6214 c-27 -7 -50 -14 -53 -16 -3 -3 36 -176 80 -359 3 -14 -14
-21 -87 -38 -50 -12 -91 -20 -93 -19 -1 2 -19 75 -39 163 -21 88 -39 163 -41
166 -4 7 -95 -10 -106 -20 -4 -3 11 -80 32 -171 21 -91 37 -165 37 -166 -15
-9 -142 -33 -147 -27 -4 4 -25 82 -45 173 -20 91 -40 168 -44 173 -8 8 -111
-10 -111 -20 0 -12 112 -488 116 -492 5 -5 650 140 666 150 10 6 -96 496 -111
510 -3 3 -28 0 -54 -7z"/>
<path d="M3015 5501 c-79 -20 -136 -73 -156 -144 -9 -32 -9 -73 1 -173 13
-141 9 -163 -31 -185 -29 -15 -66 13 -97 72 -30 57 -25 114 14 147 l26 23 -27
65 c-17 40 -31 61 -39 57 -42 -23 -79 -60 -97 -96 -56 -110 19 -323 135 -384
72 -37 177 -10 227 60 37 51 44 107 30 242 -14 127 -8 156 36 174 51 21 106
-16 138 -91 27 -66 18 -106 -37 -164 l-29 -31 27 -57 c16 -31 31 -56 35 -56
21 0 96 71 117 110 50 93 10 277 -79 368 -18 18 -44 39 -58 47 -35 17 -99 25
-136 16z"/>
<path d="M3587 4175 l-38 -114 -130 -3 -130 -3 105 -73 104 -73 -39 -117 c-21
-64 -39 -117 -39 -119 0 -3 160 110 195 138 6 4 53 -23 108 -63 54 -38 100
-68 103 -66 2 3 -12 51 -31 108 -19 57 -35 109 -35 114 1 6 46 43 102 81 l101
70 -129 3 -130 3 -38 114 c-20 63 -38 115 -39 115 -2 0 -20 -52 -40 -115z"/>
<path d="M11035 4175 l-36 -114 -130 -3 -131 -3 105 -73 106 -74 -40 -110
c-22 -61 -37 -113 -35 -116 3 -2 49 27 102 64 53 38 99 68 103 67 3 -1 48 -32
99 -69 52 -36 95 -64 98 -62 2 3 -12 51 -31 108 -19 57 -35 109 -35 114 1 6
46 43 101 81 l101 70 -129 3 -129 3 -38 114 c-20 63 -39 115 -41 115 -2 0 -20
-52 -40 -115z"/>
<path d="M8916 2810 c-70 -21 -132 -42 -136 -47 -4 -4 -38 -73 -74 -153 -37
-80 -70 -148 -75 -153 -4 -4 -23 47 -41 113 -18 67 -37 123 -42 126 -13 9
-208 -50 -208 -63 0 -13 190 -686 195 -691 4 -5 198 49 207 57 4 4 -3 43 -15
86 l-24 80 40 80 39 79 36 -39 c19 -22 72 -78 116 -124 l80 -85 65 18 c37 9
97 26 136 37 67 21 69 22 49 38 -34 27 -374 343 -374 347 0 2 40 78 89 169 49
91 84 165 78 164 -7 -1 -70 -18 -141 -39z"/>
<path d="M5809 2776 c-97 -26 -149 -92 -149 -189 0 -89 44 -143 200 -247 77
-51 99 -76 100 -111 0 -56 -65 -81 -133 -51 -51 23 -69 48 -77 111 l-5 44 -85
23 c-125 34 -120 36 -120 -44 0 -135 69 -213 241 -272 193 -68 342 -18 394
131 40 113 -10 199 -180 311 -135 89 -147 105 -107 141 49 44 147 -9 154 -83
3 -34 4 -35 83 -57 140 -39 125 -42 125 27 0 71 -23 124 -71 164 -94 79 -273
129 -370 102z"/>
<path d="M6906 2508 c-3 -24 -8 -188 -11 -365 l-6 -321 86 -7 c47 -4 89 -4 93
0 4 3 9 121 12 260 3 140 8 256 11 259 2 3 32 -113 64 -257 l60 -262 86 -3 85
-3 77 268 76 268 -6 -272 -6 -273 91 0 90 0 6 63 c3 34 8 198 11 365 l6 302
-44 0 c-24 0 -91 3 -148 6 l-105 7 -58 -209 c-32 -115 -61 -212 -65 -216 -4
-4 -29 88 -55 206 l-49 214 -45 6 c-25 3 -91 6 -148 6 l-103 0 -5 -42z"/>
<path d="M10797 2334 c-50 -33 -67 -49 -63 -62 3 -9 42 -201 86 -427 45 -225
84 -412 85 -414 8 -7 145 84 145 96 0 7 -9 51 -20 99 -11 48 -19 88 -18 89 2
1 65 42 140 90 l138 87 81 -60 80 -60 74 46 c69 44 73 48 57 63 -36 34 -693
499 -705 499 -6 -1 -43 -21 -80 -46z m251 -262 c61 -47 112 -88 112 -92 0 -8
-165 -112 -177 -112 -6 1 -70 262 -72 295 -1 11 8 5 137 -91z"/>
<path d="M3561 2334 c-94 -25 -183 -94 -251 -194 -55 -82 -70 -115 -86 -192
-34 -164 45 -319 207 -405 48 -25 64 -28 149 -28 86 0 100 3 147 29 90 50 91
54 37 122 -26 33 -49 61 -50 63 -2 2 -24 -10 -49 -27 -85 -57 -167 -50 -235
18 -81 81 -75 181 20 319 68 101 150 161 220 161 38 0 95 -24 130 -56 46 -41
63 -87 58 -151 l-3 -47 60 -23 c100 -39 92 -40 105 22 35 169 -89 339 -285
389 -72 19 -103 19 -174 0z"/>
<path d="M4037 1682 c-108 -191 -197 -353 -199 -360 -2 -8 27 -30 67 -52 l70
-39 108 192 c59 106 149 267 201 359 l94 167 -70 41 c-38 22 -71 40 -73 40 -2
0 -91 -156 -198 -348z"/>
<path d="M10255 2010 c-90 -30 -431 -214 -427 -231 2 -8 87 -172 189 -366
l186 -352 71 36 c39 19 73 37 74 38 2 2 -33 72 -77 155 -45 84 -81 153 -81
155 0 9 104 45 130 45 26 0 254 -108 338 -161 19 -12 31 -9 107 29 47 23 85
45 85 49 -1 11 -247 150 -299 168 -24 8 -54 15 -67 15 -35 0 -36 14 -3 46 134
127 58 362 -126 388 -26 3 -61 -1 -100 -14z m69 -150 c32 -12 66 -65 66 -102
0 -16 -11 -40 -27 -58 -31 -33 -222 -142 -235 -134 -5 3 -28 45 -53 93 l-44
88 120 61 c126 66 133 68 173 52z"/>
<path d="M4401 1856 c-37 -84 -41 -76 75 -126 58 -25 107 -48 109 -51 2 -3
-57 -144 -131 -313 -74 -168 -133 -310 -130 -315 10 -15 137 -64 146 -55 4 5
67 144 139 308 73 165 133 301 135 303 2 2 50 -17 107 -42 57 -25 108 -44 114
-42 10 5 60 116 54 121 -10 6 -585 256 -591 256 -4 0 -16 -20 -27 -44z"/>
<path d="M9399 1638 l-76 -29 -6 -181 c-4 -100 -7 -299 -7 -444 l0 -262 80 30
79 31 3 100 3 101 150 58 150 57 70 -75 70 -75 77 28 c42 15 76 33 77 38 0 10
-576 649 -588 651 -3 1 -40 -11 -82 -28z m184 -315 c49 -56 89 -105 89 -109 0
-5 -15 -14 -34 -20 -18 -6 -63 -23 -100 -37 l-68 -26 0 162 c1 129 3 159 13
146 7 -8 52 -61 100 -116z"/>
<path d="M5071 1578 c-5 -18 -62 -194 -126 -391 -64 -197 -115 -360 -113 -361
7 -6 133 -46 145 -46 7 0 33 64 64 160 58 179 48 170 135 129 54 -25 67 -52
123 -250 l47 -164 89 -27 c49 -15 90 -26 92 -24 5 5 -64 278 -79 313 -7 15
-24 46 -39 69 l-28 41 60 0 c86 1 145 33 185 101 73 121 44 250 -70 317 -31
18 -449 164 -473 165 -1 0 -6 -15 -12 -32z m256 -194 c130 -41 163 -66 163
-119 0 -76 -53 -124 -122 -110 -38 8 -221 65 -227 71 -8 7 54 194 64 194 6 0
60 -16 122 -36z"/>
<path d="M8643 1415 c-163 -44 -270 -161 -292 -319 -30 -209 86 -431 257 -497
156 -59 373 -4 513 131 l57 55 -35 160 c-20 88 -37 161 -38 163 -4 5 -330 -70
-338 -78 -12 -11 13 -130 27 -130 6 0 48 9 93 19 l83 19 10 -37 c16 -57 13
-67 -36 -109 -152 -135 -345 -76 -406 123 -53 171 -13 299 108 350 89 37 171
26 225 -30 38 -40 43 -40 132 0 l58 25 -15 27 c-22 42 -86 100 -136 122 -54
25 -186 27 -267 6z"/>
<path d="M5815 974 c-115 -196 -216 -367 -222 -379 -13 -23 -12 -23 60 -35 39
-6 78 -12 86 -13 7 -1 35 36 62 84 l49 86 158 -25 c86 -13 160 -28 164 -31 5
-4 15 -45 24 -91 9 -47 22 -90 28 -96 12 -12 155 -38 164 -30 4 4 -149 710
-179 827 -9 37 -9 37 -84 48 -42 6 -81 11 -88 11 -7 0 -106 -160 -222 -356z
m301 -10 l31 -156 -26 5 c-14 3 -63 11 -109 18 -55 8 -82 17 -80 25 5 18 142
264 148 264 3 0 19 -70 36 -156z"/>
<path d="M7862 1260 c-156 -21 -285 -40 -288 -43 -6 -6 97 -800 105 -808 5 -5
610 69 617 75 3 2 -16 130 -20 133 -3 4 -375 -42 -427 -53 -26 -5 -26 -4 -38
84 -19 154 -40 134 179 162 104 13 194 26 200 30 8 5 9 27 4 69 -8 73 9 70
-213 41 -86 -12 -167 -22 -181 -23 -24 -2 -25 1 -36 83 -7 47 -9 88 -5 91 3 3
100 18 216 33 115 15 211 29 213 31 2 2 0 32 -5 67 -5 44 -12 63 -23 64 -8 1
-142 -15 -298 -36z"/>
<path d="M6816 1219 c-2 -8 -7 -195 -10 -416 l-6 -403 80 0 80 0 0 267 c0 222
2 265 13 253 7 -8 82 -131 166 -272 l154 -258 83 0 84 0 0 188 c0 104 3 291 7
416 l6 227 -79 -3 -79 -3 -5 -273 -5 -274 -164 276 -164 276 -41 0 c-22 0 -58
3 -78 6 -27 5 -39 3 -42 -7z"/>
</g>
</svg>
