<?xml version="1.0" encoding="UTF-8" standalone="no"?>
<svg
   xmlns:dc="http://purl.org/dc/elements/1.1/"
   xmlns:cc="http://creativecommons.org/ns#"
   xmlns:rdf="http://www.w3.org/1999/02/22-rdf-syntax-ns#"
   xmlns:svg="http://www.w3.org/2000/svg"
   xmlns="http://www.w3.org/2000/svg"
   xmlns:sodipodi="http://sodipodi.sourceforge.net/DTD/sodipodi-0.dtd"
   xmlns:inkscape="http://www.inkscape.org/namespaces/inkscape"
   viewBox="0 0 229.99999 230"
   id="svg2"
   version="1.1"
   inkscape:version="0.91 r13725"
   sodipodi:docname="analog-face.svg"
   width="230"
   height="230">
  <metadata
     id="metadata14">
    <rdf:RDF>
      <cc:Work
         rdf:about="">
        <dc:format>image/svg+xml</dc:format>
        <dc:type
           rdf:resource="http://purl.org/dc/dcmitype/StillImage" />
        <dc:title></dc:title>
      </cc:Work>
    </rdf:RDF>
  </metadata>
  <defs
     id="defs12" />
  <sodipodi:namedview
     pagecolor="#ffffff"
     bordercolor="#666666"
     borderopacity="1"
     objecttolerance="10"
     gridtolerance="10"
     guidetolerance="10"
     inkscape:pageopacity="0"
     inkscape:pageshadow="2"
     inkscape:window-width="1920"
     inkscape:window-height="1017"
     id="namedview10"
     showgrid="false"
     inkscape:zoom="2.8550419"
     inkscape:cx="105.34424"
     inkscape:cy="127.50876"
     inkscape:window-x="-8"
     inkscape:window-y="-8"
     inkscape:window-maximized="1"
     inkscape:current-layer="svg2" />
  <circle
     style="opacity:1;fill:none;fill-opacity:1;fill-rule:nonzero;stroke:#b9b9b9;stroke-width:5.06599998;stroke-linecap:butt;stroke-miterlimit:4;stroke-dasharray:none;stroke-dashoffset:0;stroke-opacity:1"
     id="path4144"
     cx="115.30833"
     cy="115.18909"
     r="112.25755" />
  <path
     id="path8"
     d="m 61.910007,45.753341 0,-14.390367 -5.281645,0 0,-1.942258 c 0.716156,0 1.342792,-0.08828 1.969428,-0.176569 0.626635,-0.08829 1.253272,-0.264853 1.790387,-0.617991 0.537117,-0.264854 0.984714,-0.706276 1.342791,-1.147698 0.358078,-0.529708 0.626637,-1.147699 0.716156,-1.853974 l 1.879906,0 0,20.040573 -2.417023,0 z m 13.965026,0 0,-14.390367 -5.281644,0 0,-1.942258 c 0.716154,0 1.342791,-0.08828 1.969426,-0.176569 0.626636,-0.08829 1.253272,-0.264853 1.790388,-0.617991 0.537117,-0.264854 0.984713,-0.706276 1.342791,-1.147698 0.358077,-0.529708 0.626636,-1.147699 0.716155,-1.853974 l 1.879908,0 0,20.040573 -2.417024,0 z m 32.585057,-13.684092 0,-14.390367 -5.28164,0 0,-1.853974 c 0.71615,0 1.34279,-0.08829 1.96943,-0.176568 0.62662,-0.08828 1.25326,-0.264854 1.79038,-0.617992 0.53711,-0.264853 0.98472,-0.706276 1.3428,-1.147698 0.35807,-0.529707 0.62662,-1.147698 0.71615,-1.853973 l 1.8799,0 0,20.040572 -2.41702,0 z m 7.69867,-15.802918 c 0.26856,-0.882845 0.71615,-1.589121 1.25327,-2.207112 0.53711,-0.617991 1.25327,-1.147698 2.14847,-1.500836 0.80567,-0.353138 1.79038,-0.529706 2.86462,-0.529706 0.8952,0 1.70086,0.08828 2.50654,0.353138 0.80567,0.264853 1.43231,0.617991 2.05894,1.059413 0.53712,0.441422 0.98471,1.059414 1.34279,1.765689 0.35808,0.706276 0.53712,1.500836 0.53712,2.471965 0,0.882845 -0.17904,1.677404 -0.44759,2.38368 -0.26857,0.706276 -0.62665,1.324268 -1.07424,1.853974 -0.4476,0.529707 -0.98471,1.059413 -1.61135,1.412551 -0.62663,0.441423 -1.16375,0.882845 -1.79039,1.235983 -0.62662,0.353138 -1.25327,0.706276 -1.8799,1.147698 -0.62664,0.441423 -1.16376,0.794561 -1.70087,1.147699 -0.53712,0.441421 -0.98471,0.882844 -1.34279,1.324266 -0.35808,0.441423 -0.62664,1.059414 -0.71616,1.677405 l 10.38425,0 0,2.118827 -13.24887,0 c 0.0895,-1.147698 0.26856,-2.207111 0.62664,-3.001671 0.35808,-0.794561 0.71616,-1.589121 1.25328,-2.207112 0.53711,-0.617991 1.07422,-1.147698 1.79037,-1.677405 0.62665,-0.441422 1.3428,-0.882845 2.05895,-1.324267 0.8952,-0.529706 1.61136,-0.971129 2.23799,-1.412551 0.62663,-0.441423 1.16375,-0.882845 1.61135,-1.324267 0.44759,-0.441423 0.71615,-0.97113 0.98471,-1.500836 0.26856,-0.529707 0.35808,-1.147698 0.35808,-1.853974 0,-0.529707 -0.0895,-1.059413 -0.35808,-1.500836 -0.17904,-0.441422 -0.4476,-0.79456 -0.80567,-1.147698 -0.35808,-0.353138 -0.80568,-0.529706 -1.25328,-0.706276 -0.44758,-0.176568 -0.9847,-0.264853 -1.52182,-0.264853 -0.71616,0 -1.3428,0.176568 -1.7904,0.441423 -0.53711,0.264853 -0.89518,0.706275 -1.25326,1.147698 -0.35808,0.441421 -0.53712,0.971129 -0.71616,1.58912 -0.17904,0.617991 -0.17904,1.147698 -0.17904,1.765689 l -2.41702,0 c -0.26856,-0.882844 -0.17904,-1.853974 0.0895,-2.736818 z m 46.90817,29.48701 0,-14.390367 -5.28165,0 0,-1.942258 c 0.71614,0 1.34279,-0.08828 1.96942,-0.176569 0.62664,-0.08829 1.25327,-0.264853 1.79039,-0.617991 0.53712,-0.264854 0.98472,-0.706276 1.3428,-1.147698 0.35808,-0.529708 0.62662,-1.147699 0.71615,-1.853974 l 1.87991,0 0,20.040573 -2.41702,0 z m 29.00427,18.539737 c 0.26856,-0.882844 0.71616,-1.589119 1.25327,-2.207111 0.53712,-0.617991 1.25327,-1.147698 2.14847,-1.500836 0.80568,-0.353138 1.79038,-0.529706 2.86462,-0.529706 0.8952,0 1.70087,0.08828 2.50654,0.353137 0.80568,0.264853 1.43232,0.617991 2.05895,1.059414 0.53711,0.441422 0.98472,1.059413 1.34279,1.765689 0.35807,0.706276 0.53711,1.500836 0.53711,2.471965 0,0.882845 -0.17904,1.677405 -0.44759,2.383681 -0.26856,0.706276 -0.62663,1.324266 -1.07424,1.853974 -0.44758,0.529706 -0.9847,1.059413 -1.61134,1.412551 -0.62664,0.441422 -1.16375,0.882844 -1.79039,1.235982 -0.62663,0.353138 -1.25327,0.706276 -1.87991,1.147698 -0.62664,0.441423 -1.16374,0.79456 -1.70086,1.147698 -0.53712,0.441423 -0.98472,0.882844 -1.3428,1.324267 -0.35808,0.441422 -0.62663,1.059413 -0.71616,1.677405 l 10.38425,0 0,2.118827 -13.33838,0 c 0.0895,-1.147698 0.26855,-2.207111 0.62663,-3.001672 0.35808,-0.79456 0.71616,-1.58912 1.25328,-2.207111 0.53711,-0.617991 1.07422,-1.147699 1.79038,-1.677405 0.62664,-0.441422 1.3428,-0.882845 2.05896,-1.324267 0.89518,-0.529707 1.61134,-0.971129 2.23798,-1.412552 0.62663,-0.441421 1.16374,-0.882844 1.61134,-1.324266 0.4476,-0.441423 0.71616,-0.971129 0.98472,-1.500836 0.26856,-0.529707 0.35808,-1.147699 0.35808,-1.853974 0,-0.529706 -0.0895,-1.059414 -0.35808,-1.500836 -0.17904,-0.441422 -0.4476,-0.79456 -0.80568,-1.147697 -0.35807,-0.353138 -0.80568,-0.529708 -1.25326,-0.706276 -0.44761,-0.17657 -0.98472,-0.264854 -1.52184,-0.264854 -0.71616,0 -1.34279,0.176569 -1.79038,0.441422 -0.53712,0.264853 -0.8952,0.706276 -1.25328,1.147698 -0.35807,0.441423 -0.53711,0.971129 -0.71615,1.58912 -0.17904,0.617992 -0.17904,1.147698 -0.17904,1.76569 l -2.41703,0 c -0.17904,-0.971129 -0.0895,-1.853973 0.17904,-2.736819 z m 16.74014,49.351022 0.80566,0 c 0.53712,0 0.98471,-0.0883 1.43232,-0.17657 0.44759,-0.0883 0.89519,-0.35314 1.25326,-0.618 0.35808,-0.26485 0.62664,-0.61799 0.80568,-1.05941 0.17904,-0.44142 0.35808,-0.88284 0.35808,-1.41255 0,-1.05942 -0.35808,-1.85398 -1.07424,-2.38368 -0.71615,-0.52971 -1.52182,-0.79456 -2.59606,-0.79456 -0.62662,0 -1.25327,0.0883 -1.70086,0.35314 -0.4476,0.26485 -0.8952,0.52971 -1.16376,0.97112 -0.35808,0.35314 -0.53712,0.88285 -0.71616,1.41256 -0.17903,0.52971 -0.26854,1.05941 -0.26854,1.6774 l -2.41703,0 c 0,-0.97112 0.17904,-1.85397 0.44759,-2.64853 0.26856,-0.79456 0.71616,-1.50084 1.16375,-2.03054 0.53712,-0.52971 1.16375,-0.97114 1.96943,-1.32427 0.80568,-0.35313 1.70088,-0.44142 2.68558,-0.44142 0.8952,0 1.70087,0.0883 2.41703,0.35313 0.71615,0.26485 1.4323,0.52971 1.96942,0.97113 0.53712,0.44143 0.98473,0.97113 1.34279,1.67741 0.35808,0.70627 0.4476,1.50083 0.4476,2.38368 0,0.88284 -0.26856,1.6774 -0.80566,2.38368 -0.53712,0.70628 -1.16377,1.23599 -1.96944,1.58912 l 0,0.0883 c 1.25328,0.26485 2.14847,0.88285 2.7751,1.76569 0.62664,0.88285 0.8952,1.94226 0.8952,3.17824 0,0.97113 -0.17904,1.85398 -0.53712,2.64854 -0.35808,0.79456 -0.8952,1.41254 -1.52182,1.94225 -0.62665,0.52971 -1.3428,0.88285 -2.238,1.1477 -0.89519,0.26486 -1.79039,0.35314 -2.68558,0.35314 -1.07422,0 -1.96942,-0.17657 -2.7751,-0.44142 -0.80568,-0.26485 -1.52182,-0.70628 -2.14847,-1.23599 -0.62663,-0.52971 -1.07422,-1.23597 -1.34279,-2.03054 -0.35808,-0.79456 -0.44759,-1.76568 -0.44759,-2.73681 l 2.41703,0 c 0,1.32426 0.44759,2.38367 1.16374,3.17824 0.71616,0.79456 1.79039,1.23597 3.2227,1.23597 0.62663,0 1.16375,-0.0883 1.70087,-0.26484 0.53712,-0.17657 0.98471,-0.44142 1.43231,-0.79456 0.4476,-0.35314 0.71615,-0.70628 0.98472,-1.23599 0.26855,-0.52971 0.35808,-1.05941 0.35808,-1.58912 0,-0.61799 -0.0895,-1.1477 -0.35808,-1.67741 -0.26857,-0.5297 -0.53712,-0.88283 -0.8952,-1.23597 -0.35808,-0.35314 -0.80568,-0.618 -1.34279,-0.70628 -0.53712,-0.0883 -1.07424,-0.26485 -1.70087,-0.26485 -0.53712,0 -0.9847,0 -1.43231,0.0883 l 0,-2.38368 c -0.0895,0.0883 0,0.0883 0.0895,0.0883 z m -3.04366,51.82298 0,2.11882 -2.7751,0 0,4.67908 -2.32751,0 0,-4.67908 -8.95195,0 0,-2.29539 9.2205,-13.0661 1.96943,0 0,13.24267 2.86463,0 z m -5.0131,-9.79958 -6.80346,9.79958 6.80346,0 0,-9.79958 z m -40.19421,32.4004 -1.07422,5.73849 0.0895,0.0883 c 0.4476,-0.52971 0.98471,-0.88285 1.70087,-1.05942 0.71616,-0.26484 1.43232,-0.35313 2.05895,-0.35313 0.89519,0 1.79039,0.17657 2.50654,0.44142 0.80567,0.26485 1.52182,0.70628 2.05894,1.32427 0.62665,0.61799 1.07424,1.32427 1.43232,2.11882 0.35807,0.79457 0.53711,1.85398 0.53711,3.00167 0,0.88285 -0.17904,1.67741 -0.44759,2.47197 -0.26856,0.79456 -0.71615,1.50084 -1.3428,2.11883 -0.62663,0.61799 -1.34279,1.14769 -2.23798,1.50083 -0.89519,0.35314 -1.87991,0.52971 -3.13317,0.52971 -0.8952,0 -1.70088,-0.0883 -2.50655,-0.35314 -0.80568,-0.26485 -1.43231,-0.61799 -2.05895,-1.05941 -0.62664,-0.44142 -1.07422,-1.05941 -1.4323,-1.76569 -0.35808,-0.70628 -0.53712,-1.50083 -0.53712,-2.47196 l 2.41702,0 c 0,0.52971 0.17904,0.97113 0.35808,1.41255 0.17904,0.44142 0.53712,0.79456 0.89519,1.14769 0.35808,0.35314 0.80567,0.618 1.34279,0.79457 0.53711,0.17657 1.07423,0.26485 1.70088,0.26485 0.53711,0 1.16374,-0.0883 1.61134,-0.26485 0.53711,-0.17657 0.98471,-0.52971 1.34279,-0.88285 0.35808,-0.35314 0.71615,-0.88285 0.89519,-1.50083 0.26856,-0.61799 0.35808,-1.32427 0.35808,-2.11883 0,-0.61799 -0.0895,-1.23598 -0.35808,-1.85397 -0.26856,-0.618 -0.53711,-1.05942 -0.89519,-1.41256 -0.35808,-0.35313 -0.89519,-0.70627 -1.43231,-0.97112 -0.53712,-0.26486 -1.16374,-0.35314 -1.8799,-0.35314 -0.80569,0 -1.52184,0.17657 -2.14848,0.52971 -0.62663,0.35313 -1.16375,0.79455 -1.61134,1.41254 l -2.05894,-0.0883 1.8799,-10.41756 10.02617,0 0,2.11882 -8.05675,0 z m -42.34267,12.97782 c -0.62664,-0.52971 -1.34279,-0.79457 -2.3275,-0.79457 -1.07424,0 -1.87991,0.26486 -2.50654,0.70628 -0.62665,0.44142 -1.16376,1.14769 -1.43232,1.85397 -0.26855,0.70628 -0.62662,1.58913 -0.71615,2.47196 -0.0895,0.88285 -0.17904,1.67741 -0.26855,2.47198 l 0.0895,0.0883 c 0.53711,-0.88284 1.25327,-1.58912 2.14847,-2.03054 0.80567,-0.44142 1.79038,-0.61799 2.95413,-0.61799 0.98473,0 1.87991,0.17657 2.59607,0.52971 0.80567,0.35314 1.43231,0.79456 1.96942,1.41255 0.53712,0.618 0.89519,1.23598 1.25327,2.03054 0.26857,0.79456 0.44761,1.6774 0.44761,2.56025 0,0.70628 -0.0895,1.50084 -0.35808,2.29539 -0.26857,0.79457 -0.62665,1.50084 -1.16376,2.11884 -0.53711,0.61799 -1.25327,1.14769 -2.05894,1.58911 -0.8952,0.44143 -1.96943,0.618 -3.2227,0.618 -1.52183,0 -2.68559,-0.26486 -3.6703,-0.88285 -0.9847,-0.61799 -1.61135,-1.41255 -2.14846,-2.29539 -0.53712,-0.97114 -0.80568,-1.94226 -0.98472,-3.08996 -0.17904,-1.1477 -0.26856,-2.20711 -0.26856,-3.26653 0,-1.41254 0.0895,-2.73681 0.35808,-3.9728 0.26856,-1.32426 0.62664,-2.47196 1.25328,-3.44309 0.53711,-0.97113 1.34279,-1.76569 2.3275,-2.38368 0.98471,-0.61799 2.14846,-0.88284 3.58078,-0.88284 1.70086,0 3.04365,0.44142 4.02837,1.32426 0.98471,0.88285 1.52182,2.11883 1.70086,3.79623 l -2.41701,0 c -0.17904,-0.97113 -0.53712,-1.6774 -1.16376,-2.20711 z m -4.38645,6.62133 c -0.53712,0.26485 -0.98471,0.5297 -1.34279,0.97113 -0.35808,0.44142 -0.62663,0.88284 -0.80567,1.41255 -0.17904,0.52971 -0.26856,1.14769 -0.26856,1.76569 0,0.61799 0.0895,1.23598 0.26856,1.76569 0.17904,0.5297 0.44759,1.05941 0.80567,1.41255 0.35808,0.35314 0.80567,0.70628 1.34279,0.97113 0.53712,0.26485 1.16375,0.35314 1.79039,0.35314 0.62664,0 1.25327,-0.0883 1.79039,-0.35314 0.53711,-0.26485 0.89519,-0.52971 1.25327,-0.97113 0.35808,-0.44143 0.62663,-0.88285 0.80567,-1.41255 0.17904,-0.52971 0.26857,-1.05942 0.26857,-1.67741 0,-0.61799 -0.0895,-1.23598 -0.26857,-1.76568 -0.17904,-0.52971 -0.44759,-1.05942 -0.71616,-1.41256 -0.35807,-0.44142 -0.80567,-0.70628 -1.25325,-0.97112 -0.44761,-0.26486 -1.07424,-0.35314 -1.7904,-0.35314 -0.80568,-0.0883 -1.34279,0.0883 -1.87991,0.26485 z M 72.115218,191.59928 c -0.895193,1.41254 -1.700868,2.8251 -2.417023,4.41422 -0.716155,1.58912 -1.253272,3.17824 -1.700869,4.85565 -0.447596,1.6774 -0.716155,3.26652 -0.805674,4.85564 l -2.685582,0 c 0.08952,-1.6774 0.358077,-3.35481 0.805675,-4.94393 0.447596,-1.58912 0.984713,-3.17824 1.700867,-4.5908 0.716156,-1.41254 1.52183,-2.91338 2.417024,-4.23764 0.895195,-1.32428 1.879907,-2.56025 2.95414,-3.61967 l -10.473769,0 0,-2.38368 13.159351,0 0,2.03054 c -1.074232,1.05942 -2.058945,2.20711 -2.95414,3.61967 z m -44.49114,-36.46149 c 0.358078,-0.61799 0.805676,-1.1477 1.342792,-1.58911 0.537116,-0.44143 1.163752,-0.79457 1.879908,-0.97114 0.716154,-0.26485 1.43231,-0.35313 2.237985,-0.35313 1.074232,0 2.058946,0.17657 2.86462,0.44142 0.805674,0.26485 1.43231,0.70628 1.879908,1.14769 0.447596,0.44143 0.805673,1.05942 1.074232,1.67741 0.268558,0.618 0.358077,1.23598 0.358077,1.85397 0,0.88285 -0.268558,1.7657 -0.716154,2.47197 -0.447598,0.70627 -1.163753,1.32427 -2.058947,1.67741 1.253272,0.35313 2.148465,0.97113 2.685582,1.85397 0.537116,0.88284 0.895194,1.94226 0.895194,3.17824 0,0.97113 -0.179039,1.85398 -0.537117,2.56024 -0.358077,0.79457 -0.805674,1.41256 -1.43231,1.94227 -0.626635,0.52971 -1.342791,0.88284 -2.148465,1.14769 -0.805674,0.26486 -1.700869,0.35314 -2.596062,0.35314 -0.984714,0 -1.879908,-0.0883 -2.685583,-0.35314 -0.805674,-0.26485 -1.611349,-0.61798 -2.148465,-1.14769 -0.537117,-0.52971 -1.074233,-1.1477 -1.43231,-1.94227 -0.358078,-0.79455 -0.537117,-1.6774 -0.537117,-2.64853 0,-1.14769 0.268559,-2.20711 0.895194,-3.08995 0.626636,-0.88284 1.52183,-1.50084 2.596062,-1.94226 -0.895194,-0.35314 -1.521829,-0.88285 -2.058946,-1.67741 -0.537116,-0.79455 -0.805673,-1.58912 -0.805673,-2.47196 -0.08952,-0.79456 0.08951,-1.50083 0.447595,-2.11883 z m 2.596063,14.30208 c 0.805675,0.70628 1.879908,1.05942 3.13318,1.05942 0.626635,0 1.163752,-0.0883 1.700868,-0.26485 0.537116,-0.17657 0.984713,-0.44143 1.342791,-0.79457 0.358077,-0.35314 0.626636,-0.79456 0.895194,-1.23597 0.268558,-0.44143 0.268558,-0.97114 0.268558,-1.58913 0,-0.52971 -0.08951,-1.05941 -0.358078,-1.50083 -0.268558,-0.44142 -0.537116,-0.88285 -0.895193,-1.23599 -0.358078,-0.35314 -0.805675,-0.61799 -1.342792,-0.79456 -0.537116,-0.17657 -1.074232,-0.26485 -1.611348,-0.26485 -0.626637,0 -1.163753,0.0883 -1.70087,0.26485 -0.537115,0.17657 -0.984713,0.44142 -1.34279,0.79456 -0.358077,0.35314 -0.716155,0.70628 -0.895193,1.23599 -0.17904,0.44142 -0.358079,0.97112 -0.358079,1.58912 -0.08951,1.05941 0.268559,2.03054 1.163752,2.73681 z m -0.268557,-10.59413 c 0.179038,0.44143 0.447596,0.70628 0.805674,0.97113 0.358078,0.26485 0.716155,0.44142 1.163752,0.61799 0.447597,0.0883 0.895193,0.17657 1.432311,0.17657 0.984712,0 1.790388,-0.26486 2.417023,-0.88285 0.626636,-0.5297 0.984713,-1.32426 0.984713,-2.38368 0,-1.05941 -0.358077,-1.76568 -0.984713,-2.29539 -0.626635,-0.52971 -1.432311,-0.79456 -2.417023,-0.79456 -0.447598,0 -0.895194,0.0883 -1.342792,0.17657 -0.447597,0.0883 -0.805673,0.35313 -1.163751,0.61799 -0.358078,0.26485 -0.537117,0.61799 -0.716156,0.97113 -0.179038,0.35314 -0.268558,0.79455 -0.268558,1.32426 -0.179038,0.618 -0.08951,1.05942 0.08951,1.50084 z m -11.906079,-36.3732 c 0.716154,0.52971 1.521828,0.79457 2.506543,0.79457 1.52183,0 2.596062,-0.618 3.312217,-1.94227 0.716155,-1.32426 1.163751,-3.17824 1.253271,-5.82677 l -0.08953,-0.0883 c -0.447596,0.88285 -1.074233,1.50084 -1.969426,2.03054 -0.805675,0.52971 -1.790388,0.70628 -2.775102,0.70628 -1.074232,0 -1.969426,-0.17657 -2.775101,-0.52971 -0.805674,-0.35313 -1.43231,-0.79455 -2.058946,-1.41254 -0.537116,-0.618 -0.984713,-1.32427 -1.253272,-2.11883 -0.268557,-0.79456 -0.447596,-1.76569 -0.447596,-2.73682 0,-0.97113 0.179039,-1.85397 0.447596,-2.64854 0.358078,-0.79455 0.805676,-1.50083 1.342791,-2.03054 0.626637,-0.61799 1.342792,-1.05941 2.148467,-1.32426 0.805673,-0.35314 1.700867,-0.44142 2.685581,-0.44142 0.984713,0 1.879907,0.17657 2.685582,0.44142 0.805675,0.26485 1.611348,0.79455 2.237985,1.50083 0.626635,0.70628 1.163752,1.6774 1.52183,2.91339 0.358078,1.23599 0.537115,2.8251 0.537115,4.67907 0,3.4431 -0.537115,6.09163 -1.700867,7.94561 -1.074233,1.85397 -2.864621,2.8251 -5.371165,2.8251 -1.700868,0 -3.133178,-0.44142 -4.207411,-1.23598 -1.074232,-0.79456 -1.790388,-2.11883 -1.879908,-3.88451 l 2.417024,0 c 0.358077,1.0594 0.805675,1.85397 1.432312,2.38367 z m 6.445396,-12.53639 c -0.17904,-0.52971 -0.447598,-1.05942 -0.805676,-1.41256 -0.358077,-0.35313 -0.805674,-0.79455 -1.34279,-0.97112 -0.537117,-0.26485 -1.074233,-0.35314 -1.790387,-0.35314 -0.716156,0 -1.342792,0.0883 -1.879908,0.35314 -0.537118,0.26485 -0.895194,0.61799 -1.253272,1.05941 -0.358078,0.44142 -0.537116,0.97113 -0.716155,1.50084 -0.179038,0.52971 -0.179038,1.1477 -0.179038,1.76568 0,0.52971 0.08951,1.05942 0.268558,1.58913 0.179037,0.52971 0.447596,0.97112 0.805674,1.32426 0.358078,0.35314 0.805675,0.70628 1.253271,0.97113 0.447598,0.26486 0.984714,0.35314 1.61135,0.35314 0.626635,0 1.163752,-0.0883 1.700867,-0.35314 0.537117,-0.26485 0.984715,-0.52971 1.342792,-0.97113 0.358078,-0.44141 0.626636,-0.88284 0.805674,-1.41255 0.17904,-0.52971 0.268559,-1.05941 0.268559,-1.67741 0.179038,-0.61798 0.08951,-1.23597 -0.08951,-1.76568 z m 1.700867,-30.811282 0,-14.302082 -5.192125,0 0,-1.942259 c 0.716157,0 1.342792,-0.08828 1.969428,-0.176568 0.626635,-0.08828 1.253272,-0.264854 1.790387,-0.617992 0.537117,-0.264853 0.984715,-0.706276 1.342791,-1.147698 0.358078,-0.529707 0.626636,-1.147698 0.716156,-1.853973 l 1.879906,0 0,20.040572 -2.506543,0 z m 7.430111,-12.094971 c 0,-0.79456 0.08951,-1.58912 0.268558,-2.295396 0.179038,-0.79456 0.358077,-1.500836 0.626636,-2.118827 0.268558,-0.706276 0.716154,-1.235983 1.163751,-1.765689 0.537117,-0.529707 1.163752,-0.882845 1.879908,-1.235983 0.716155,-0.353138 1.700868,-0.441423 2.685582,-0.441423 1.074233,0 1.969427,0.17657 2.685582,0.441423 0.716155,0.264853 1.342791,0.706276 1.879907,1.235983 0.537116,0.529706 0.895194,1.059413 1.163751,1.765689 0.268559,0.706276 0.537118,1.412551 0.626637,2.118827 0.179039,0.79456 0.268558,1.500836 0.268558,2.295396 0,0.79456 0.08952,1.58912 0.08952,2.295396 0,0.706275 0,1.500836 -0.08952,2.295396 -0.08952,0.79456 -0.08952,1.58912 -0.268558,2.295397 -0.179039,0.794559 -0.358078,1.500835 -0.626637,2.118826 -0.268557,0.617991 -0.716154,1.235982 -1.163751,1.76569 -0.537116,0.529706 -1.074233,0.882844 -1.879907,1.235982 -0.805675,0.353137 -1.611349,0.441422 -2.685582,0.441422 -1.074233,0 -1.969427,-0.176568 -2.685582,-0.441422 -0.716156,-0.264854 -1.342791,-0.706276 -1.879908,-1.235982 -0.537115,-0.529708 -0.895193,-1.059414 -1.163751,-1.76569 -0.268559,-0.706275 -0.537117,-1.412551 -0.626636,-2.118826 -0.179039,-0.794561 -0.268558,-1.500837 -0.268558,-2.295397 0,-0.79456 -0.08951,-1.589121 -0.08951,-2.295396 0.08951,-0.706276 0.08951,-1.500836 0.08951,-2.295396 z m 2.596062,4.767361 c 0.08952,0.971129 0.179039,1.76569 0.447597,2.648534 0.268558,0.79456 0.716155,1.500836 1.253271,2.118827 0.537117,0.617992 1.342791,0.882845 2.417025,0.882845 1.074232,0 1.790387,-0.264853 2.417023,-0.882845 0.626635,-0.617991 0.984713,-1.235982 1.253272,-2.118827 0.268558,-0.794561 0.447596,-1.677405 0.447596,-2.648534 0.08951,-0.971129 0.08951,-1.76569 0.08951,-2.56025 l 0,-1.58912 c 0,-0.617991 -0.08951,-1.147698 -0.179038,-1.765689 -0.08951,-0.617992 -0.179039,-1.147698 -0.358077,-1.765689 -0.17904,-0.529707 -0.358078,-1.059413 -0.716156,-1.500836 -0.358077,-0.441423 -0.716155,-0.79456 -1.163752,-1.059413 -0.447597,-0.264855 -1.074233,-0.353138 -1.790387,-0.353138 -0.716156,0 -1.253273,0.08828 -1.790388,0.353138 -0.447598,0.264853 -0.895194,0.61799 -1.163753,1.059413 -0.358077,0.441423 -0.537117,0.882844 -0.716155,1.500836 -0.17904,0.529706 -0.268558,1.147697 -0.358077,1.765689 -0.08953,0.617991 -0.08953,1.147698 -0.179039,1.765689 l 0,1.58912 c 0.08951,0.79456 0.08951,1.677405 0.08951,2.56025 z"
     inkscape:connector-curvature="0" />
</svg>
